<?xml version="1.0" encoding="UTF-8"?>
<svg id="Layer_2" data-name="Layer 2" xmlns="http://www.w3.org/2000/svg" viewBox="0 0 1777.95 269.31">
  <defs>
    <style>
      .cls-1 {
        fill: teal;
      }
    </style>
  </defs>
  <g id="Layer_1-2" data-name="Layer 1">
    <path d="M1719.18,164.12c-8.46-.21-16.7-1.75-24.75-4.64-8.04-2.89-15.05-6.81-21.04-11.76-5.98-4.95-10.26-10.57-12.84-16.86l18.72-8.04c1.65,4.02,4.69,7.73,9.12,11.14,4.54,3.3,9.69,5.98,15.47,8.04,5.77,1.96,11.5,2.94,17.17,2.94,6.29,0,12.17-1.03,17.63-3.09,5.47-2.06,9.9-5,13.3-8.82,3.51-3.92,5.26-8.51,5.26-13.77,0-5.67-1.86-10.11-5.57-13.3-3.71-3.3-8.41-5.88-14.08-7.73-5.67-1.96-11.5-3.82-17.48-5.57-10.93-2.99-20.57-6.29-28.93-9.9-8.35-3.61-14.9-8.2-19.65-13.77-4.64-5.67-6.96-12.94-6.96-21.81,0-9.38,2.63-17.48,7.89-24.28,5.36-6.91,12.32-12.22,20.88-15.93,8.67-3.82,17.89-5.72,27.69-5.72,12.58,0,24.03,2.73,34.34,8.2,10.41,5.47,17.94,12.73,22.58,21.81l-17.48,10.36c-1.86-4.23-4.8-7.89-8.82-10.98-4.02-3.09-8.61-5.52-13.77-7.27-5.05-1.75-10.21-2.68-15.46-2.78-6.6-.1-12.74.88-18.41,2.94-5.67,1.96-10.26,4.9-13.76,8.82-3.4,3.92-5.1,8.71-5.1,14.38s1.7,10,5.1,12.99c3.4,2.89,7.99,5.26,13.76,7.11,5.88,1.75,12.48,3.82,19.8,6.19,9.38,2.99,18.2,6.39,26.45,10.21s14.9,8.56,19.95,14.23c5.05,5.67,7.53,12.84,7.42,21.5,0,9.28-2.78,17.38-8.35,24.28-5.57,6.91-12.79,12.22-21.66,15.93-8.87,3.61-18.35,5.26-28.46,4.95Z"/>
    <path d="M1587.82,65.45v95.74h-21.65v-91.41c0-8.46-2.06-16.14-6.19-23.05-4.12-6.91-9.64-12.43-16.55-16.55-6.91-4.12-14.59-6.19-23.04-6.19s-16.04,2.06-23.05,6.19c-6.91,4.12-12.42,9.64-16.55,16.55-4.12,6.91-6.19,14.59-6.19,23.05h-21.65V6.52h21.65v21.35c5.47-7.84,12.58-14.08,21.35-18.72,8.77-4.64,18.31-6.96,28.62-6.96,11.65,0,22.27,2.84,31.86,8.51,9.59,5.67,17.22,13.3,22.89,22.89,5.67,9.59,8.5,20.21,8.5,31.86Z"/>
    <path d="M1296.82,165.21c-14.23,0-27.23-3.66-38.98-10.98-11.65-7.32-20.99-17.12-28-29.39-6.91-12.37-10.36-26.04-10.36-40.99,0-11.34,2.01-21.91,6.03-31.71,4.02-9.9,9.54-18.56,16.55-25.99,7.11-7.53,15.36-13.41,24.74-17.63,9.38-4.23,19.39-6.34,30.01-6.34,14.23,0,27.17,3.66,38.82,10.98,11.76,7.32,21.09,17.17,28,29.54,7.01,12.37,10.52,26.09,10.52,41.14,0,11.24-2.01,21.76-6.03,31.55-4.02,9.8-9.59,18.46-16.7,25.99-7.01,7.42-15.21,13.25-24.59,17.48-9.28,4.23-19.28,6.34-30.01,6.34ZM1296.82,143.56c10.52,0,19.95-2.73,28.31-8.2,8.45-5.57,15.1-12.89,19.95-21.96,4.95-9.07,7.42-18.92,7.42-29.54s-2.48-20.78-7.42-29.85c-4.95-9.18-11.65-16.5-20.11-21.96-8.35-5.47-17.74-8.2-28.15-8.2s-20.01,2.78-28.46,8.35c-8.35,5.47-15.01,12.73-19.95,21.81-4.85,9.07-7.27,19.03-7.27,29.85s2.53,21.24,7.58,30.32c5.06,8.97,11.81,16.14,20.27,21.5,8.45,5.26,17.74,7.89,27.84,7.89Z"/>
    <path d="M1118.78,53.73h21.65v107.46h-21.65V53.73Z"/>
    <path class="cls-1" d="M1118.58,0h21.65v19.54h-21.65V0Z"/>
    <path class="cls-1" d="M1453.17,136.77h21.98v24.42h-21.98v-24.42Z"/>
    <path d="M1039.79,48.84h-36.97l-.16,112.34h-21.65l.16-133.02V0h21.65v27.19h36.97v21.65Z"/>
    <path d="M860.9,122.37l19.34,10.52c-7.01,9.8-15.93,17.63-26.76,23.51-10.72,5.88-22.38,8.82-34.95,8.82-14.23,0-27.23-3.66-38.98-10.98-11.65-7.32-20.98-17.12-28-29.39-6.91-12.37-10.36-26.04-10.36-40.99,0-11.34,2.01-21.91,6.03-31.71,4.02-9.9,9.54-18.56,16.55-25.99,7.11-7.53,15.36-13.41,24.74-17.63,9.38-4.23,19.39-6.34,30.01-6.34,12.58,0,24.23,2.94,34.95,8.82,10.83,5.88,19.75,13.77,26.76,23.67l-19.34,10.36c-5.36-6.81-11.81-12.01-19.33-15.62-7.53-3.71-15.21-5.57-23.05-5.57-10.42,0-19.85,2.78-28.31,8.35-8.45,5.47-15.16,12.73-20.11,21.81-4.85,9.07-7.27,19.03-7.27,29.85s2.47,20.78,7.42,29.85c5.05,9.07,11.81,16.34,20.26,21.81,8.46,5.36,17.79,8.04,28,8.04,8.46,0,16.39-1.96,23.82-5.88,7.42-3.92,13.61-9.02,18.56-15.31Z"/>
    <path d="M596.16,165.21c-14.23,0-27.22-3.66-38.98-10.98-11.65-7.32-20.98-17.12-27.99-29.39-6.91-12.37-10.36-26.04-10.36-40.99,0-11.34,2.01-21.91,6.03-31.71,4.02-9.9,9.54-18.56,16.55-25.99,7.12-7.53,15.37-13.41,24.75-17.63,9.38-4.23,19.39-6.34,30.01-6.34,11.45,0,21.97,2.27,31.55,6.81,9.7,4.54,17.99,10.88,24.91,19.03,7.01,8.15,12.27,17.68,15.78,28.61,3.6,10.93,5.7,11.76,5.7,23.97h-131.16c-.58,19.7,3.86,29.72,8.06,37.75,5.05,7.73,11.44,13.87,19.18,18.41,7.84,4.43,16.5,6.7,25.99,6.81,10.31,0,19.59-2.68,27.84-8.04,8.35-5.36,15.05-12.73,20.11-22.12l21.97,5.1c-6.19,13.71-15.52,24.95-28,33.72-12.48,8.66-26.45,12.99-41.92,12.99ZM541.1,74.57h109.97c-.72-9.59-3.66-18.35-8.82-26.29-5.06-8.04-11.6-14.44-19.65-19.18-8.04-4.85-16.86-7.27-26.45-7.27s-18.36,2.37-26.29,7.12c-7.94,4.64-14.44,10.98-19.49,19.03-5.06,7.94-8.15,16.81-9.28,26.6Z"/>
    <path d="M417.81,161.19V0h21.65v161.19h-21.65Z"/>
    <path d="M263.2,165.21c-14.23,0-27.22-3.66-38.98-10.98-11.65-7.32-20.98-17.12-28-29.39-6.91-12.37-10.36-26.04-10.36-40.99,0-11.34,2.01-21.91,6.03-31.71,4.02-9.9,9.54-18.56,16.55-25.99,7.12-7.53,15.36-13.41,24.75-17.63,9.38-4.23,19.39-6.34,30.01-6.34,11.45,0,21.96,2.27,31.55,6.81,9.69,4.54,17.99,10.88,24.9,19.03,7.01,8.15,12.27,17.68,15.78,28.61,3.61,10.93,4.18,11.76,4.18,23.97h-131.16c-.65,13.72,4.64,30.01,9.59,37.75,5.05,7.73,11.45,13.87,19.18,18.41,7.84,4.43,16.5,6.7,25.99,6.81,10.31,0,19.59-2.68,27.84-8.04,8.35-5.36,15.05-12.73,20.11-22.12l21.96,5.1c-6.19,13.71-15.52,24.95-28,33.72-12.48,8.66-26.45,12.99-41.92,12.99ZM208.13,74.57h109.97c-.72-9.59-3.66-18.35-8.82-26.29-5.05-8.04-11.6-14.44-19.64-19.18-8.04-4.85-16.86-7.27-26.45-7.27s-18.35,2.37-26.29,7.12c-7.94,4.64-14.44,10.98-19.49,19.03-5.05,7.94-8.15,16.81-9.28,26.6Z"/>
    <path d="M58.62,164.12c-8.46-.21-16.71-1.75-24.75-4.64-8.04-2.89-15.06-6.81-21.04-11.76-5.98-4.95-10.26-10.57-12.84-16.86l18.72-8.04c1.65,4.02,4.69,7.73,9.13,11.14,4.54,3.3,9.69,5.98,15.47,8.04,5.77,1.96,11.5,2.94,17.17,2.94,6.29,0,12.17-1.03,17.63-3.09,5.46-2.06,9.9-5,13.3-8.82,3.51-3.92,5.26-8.51,5.26-13.77,0-5.67-1.86-10.11-5.57-13.3-3.71-3.3-8.4-5.88-14.08-7.73-5.67-1.96-11.5-3.82-17.48-5.57-10.93-2.99-20.57-6.29-28.92-9.9-8.35-3.61-14.9-8.2-19.64-13.77-4.64-5.67-6.96-12.94-6.96-21.81,0-9.38,2.63-17.48,7.89-24.28,5.36-6.91,12.32-12.22,20.88-15.93,8.66-3.82,17.89-5.72,27.69-5.72,12.58,0,24.03,2.73,34.34,8.2,10.41,5.47,17.94,12.73,22.58,21.81l-17.48,10.36c-1.86-4.23-4.8-7.89-8.82-10.98-4.02-3.09-8.61-5.52-13.77-7.27-5.05-1.75-10.21-2.68-15.47-2.78-6.6-.1-12.74.88-18.41,2.94-5.67,1.96-10.26,4.9-13.77,8.82-3.4,3.92-5.1,8.71-5.1,14.38s1.7,10,5.1,12.99c3.4,2.89,7.99,5.26,13.77,7.11,5.88,1.75,12.48,3.82,19.8,6.19,9.38,2.99,18.2,6.39,26.45,10.21,8.25,3.82,14.9,8.56,19.95,14.23,5.05,5.67,7.53,12.84,7.42,21.5,0,9.28-2.78,17.38-8.35,24.28-5.57,6.91-12.79,12.22-21.65,15.93-8.87,3.61-18.35,5.26-28.46,4.95Z"/>
    <path d="M1771.12,236.68c-.21-2.91-1.32-5.31-3.35-7.18-2.01-1.87-4.67-2.81-7.97-2.81-2.16,0-4.1.42-5.81,1.25-1.7.83-3.05,1.98-4.04,3.43-.98,1.44-1.48,3.1-1.48,4.97,0,1.08.18,2.08.54,3,.36.92.91,1.75,1.64,2.52.75.75,1.69,1.43,2.81,2.04,1.14.6,2.47,1.13,4,1.6l4.83,1.5c1.85.57,3.44,1.21,4.79,1.92,1.35.71,2.46,1.51,3.33,2.39.89.87,1.55,1.85,1.98,2.94.43,1.07.64,2.26.64,3.58,0,2.22-.57,4.2-1.7,5.93-1.14,1.73-2.73,3.09-4.77,4.08-2.04.99-4.41,1.48-7.1,1.48s-4.86-.45-6.81-1.35c-1.94-.92-3.48-2.17-4.62-3.77-1.12-1.61-1.75-3.46-1.9-5.54h1.33c.14,1.83.72,3.45,1.73,4.85s2.39,2.5,4.12,3.29c1.75.79,3.8,1.19,6.14,1.19s4.58-.42,6.41-1.27c1.85-.86,3.28-2.05,4.29-3.58,1.03-1.53,1.54-3.3,1.54-5.31,0-1.53-.33-2.87-1-4.02-.66-1.17-1.71-2.19-3.15-3.08-1.43-.89-3.29-1.69-5.6-2.39l-4.83-1.5c-3.34-1.05-5.85-2.45-7.51-4.18-1.65-1.73-2.48-3.84-2.48-6.31,0-2.1.55-3.97,1.65-5.62,1.09-1.67,2.59-2.98,4.49-3.93,1.91-.96,4.09-1.44,6.52-1.44s4.59.49,6.43,1.46c1.85.97,3.31,2.31,4.39,4.02,1.08,1.71,1.69,3.66,1.83,5.85h-1.33Z"/>
    <path d="M1572.82,268.65v-42.63h22.73v1.33h-21.4v19.32h20.15v1.33h-20.15v19.32h21.98v1.33h-23.31Z"/>
    <path d="M1420.76,239.34h-1.42c-.26-1.42-.78-2.86-1.54-4.33-.77-1.47-1.78-2.83-3.04-4.08-1.26-1.25-2.75-2.25-4.47-3.02-1.72-.76-3.67-1.14-5.85-1.14-2.92,0-5.61.8-8.1,2.39-2.47,1.58-4.46,3.91-5.97,6.97-1.5,3.05-2.25,6.79-2.25,11.2s.75,8.23,2.25,11.28c1.51,3.05,3.5,5.36,5.97,6.93,2.49,1.57,5.18,2.35,8.1,2.35,2.18,0,4.13-.37,5.85-1.12,1.72-.76,3.21-1.76,4.47-3,1.27-1.25,2.28-2.61,3.04-4.08.76-1.48,1.27-2.94,1.54-4.37h1.42c-.26,1.5-.79,3.06-1.58,4.68-.79,1.61-1.86,3.12-3.2,4.52-1.35,1.4-2.98,2.54-4.89,3.41-1.91.86-4.13,1.29-6.64,1.29-3.5,0-6.57-.92-9.22-2.75s-4.72-4.39-6.2-7.68c-1.48-3.29-2.23-7.11-2.23-11.47s.74-8.18,2.23-11.47c1.48-3.29,3.55-5.85,6.2-7.68s5.72-2.75,9.22-2.75c2.51,0,4.72.43,6.64,1.29,1.91.86,3.55,1.99,4.89,3.39,1.34,1.39,2.41,2.89,3.2,4.52.79,1.61,1.32,3.18,1.58,4.7Z"/>
    <path d="M1234.63,226.02v42.63h-1.33v-42.63h1.33Z"/>
    <path d="M1052.57,226.02l14.65,40.96h.17l14.65-40.96h1.42l-15.23,42.63h-1.83l-15.24-42.63h1.42Z"/>
    <path d="M879.23,268.65v-42.63h12.49c2.39,0,4.49.51,6.33,1.52,1.85,1.01,3.29,2.43,4.33,4.25,1.06,1.82,1.58,3.95,1.58,6.39s-.53,4.53-1.58,6.35c-1.04,1.8-2.49,3.21-4.33,4.23-1.83,1-3.94,1.5-6.33,1.5h-11.83v-1.33h11.83c2.13,0,4.02-.44,5.66-1.33,1.64-.89,2.92-2.14,3.85-3.75.93-1.61,1.4-3.5,1.4-5.66s-.46-4.08-1.4-5.7c-.93-1.62-2.21-2.88-3.85-3.77-1.64-.9-3.53-1.35-5.66-1.35h-11.16v41.3h-1.33ZM895.46,249.25l10.49,19.4h-1.5l-10.49-19.4h1.5Z"/>
    <path d="M703.73,268.65v-42.63h22.73v1.33h-21.4v19.32h20.15v1.33h-20.15v19.32h21.98v1.33h-23.31Z"/>
    <path d="M549.39,236.68c-.21-2.91-1.32-5.31-3.35-7.18-2.01-1.87-4.67-2.81-7.97-2.81-2.16,0-4.1.42-5.81,1.25-1.7.83-3.05,1.98-4.04,3.43-.98,1.44-1.48,3.1-1.48,4.97,0,1.08.18,2.08.54,3,.36.92.91,1.75,1.64,2.52.75.75,1.69,1.43,2.81,2.04,1.14.6,2.47,1.13,4,1.6l4.83,1.5c1.85.57,3.44,1.21,4.79,1.92,1.35.71,2.46,1.51,3.33,2.39.89.87,1.55,1.85,1.98,2.94.43,1.07.64,2.26.64,3.58,0,2.22-.57,4.2-1.7,5.93-1.14,1.73-2.73,3.09-4.77,4.08-2.04.99-4.41,1.48-7.1,1.48s-4.86-.45-6.81-1.35c-1.94-.92-3.48-2.17-4.62-3.77-1.12-1.61-1.75-3.46-1.9-5.54h1.33c.14,1.83.72,3.45,1.73,4.85s2.39,2.5,4.12,3.29c1.75.79,3.8,1.19,6.14,1.19s4.58-.42,6.41-1.27c1.85-.86,3.28-2.05,4.29-3.58,1.03-1.53,1.54-3.3,1.54-5.31,0-1.53-.33-2.87-1-4.02-.66-1.17-1.71-2.19-3.15-3.08-1.43-.89-3.29-1.69-5.6-2.39l-4.83-1.5c-3.34-1.05-5.85-2.45-7.51-4.18-1.65-1.73-2.48-3.84-2.48-6.31,0-2.1.55-3.97,1.65-5.62,1.09-1.67,2.59-2.98,4.49-3.93,1.91-.96,4.09-1.44,6.52-1.44s4.59.49,6.43,1.46c1.85.97,3.31,2.31,4.39,4.02,1.08,1.71,1.69,3.66,1.83,5.85h-1.33Z"/>
    <path d="M191.53,268.65v-42.63h12.49c2.39,0,4.5.51,6.33,1.52,1.85,1.01,3.29,2.43,4.33,4.25,1.05,1.82,1.58,3.95,1.58,6.39s-.53,4.53-1.58,6.35c-1.04,1.8-2.48,3.21-4.33,4.23-1.83,1-3.94,1.5-6.33,1.5h-11.82v-1.33h11.82c2.14,0,4.02-.44,5.66-1.33,1.64-.89,2.92-2.14,3.85-3.75.93-1.61,1.39-3.5,1.39-5.66s-.47-4.08-1.39-5.7c-.93-1.62-2.21-2.88-3.85-3.77-1.64-.9-3.52-1.35-5.66-1.35h-11.16v41.3h-1.33ZM207.76,249.25l10.49,19.4h-1.5l-10.49-19.4h1.5Z"/>
    <path d="M7.15,268.65v-42.63h1.33v20.65h27.14v-20.65h1.33v42.63h-1.33v-20.65H8.49v20.65h-1.33Z"/>
  </g>
</svg>